<?xml version="1.0" standalone="no"?>
<!DOCTYPE svg PUBLIC "-//W3C//DTD SVG 20010904//EN"
 "http://www.w3.org/TR/2001/REC-SVG-20010904/DTD/svg10.dtd">
<svg version="1.0" xmlns="http://www.w3.org/2000/svg"
 width="512.000000pt" height="512.000000pt" viewBox="0 0 512.000000 512.000000"
 preserveAspectRatio="xMidYMid meet">

<g transform="translate(0.000000,512.000000) scale(0.100000,-0.100000)"
fill="#000000" stroke="none">
<path d="M2321 5110 c-497 -48 -990 -251 -1376 -565 -114 -92 -294 -274 -384
-387 -229 -287 -417 -675 -495 -1023 -49 -218 -60 -325 -60 -575 0 -250 11
-357 60 -575 79 -355 272 -749 509 -1040 92 -114 274 -294 387 -384 287 -229
675 -417 1023 -495 218 -49 325 -60 575 -60 250 0 357 11 575 60 261 58 603
204 828 353 389 259 688 599 893 1016 125 255 196 484 241 775 24 161 24 539
0 700 -45 291 -116 520 -241 775 -134 272 -283 480 -498 692 -211 209 -404
346 -673 478 -252 124 -486 197 -765 240 -126 19 -468 27 -599 15z m559 -246
c508 -74 967 -303 1324 -660 359 -358 581 -804 662 -1329 12 -77 17 -172 17
-315 0 -378 -75 -698 -240 -1032 -343 -693 -980 -1152 -1768 -1274 -151 -23
-479 -23 -630 0 -525 81 -971 303 -1329 662 -359 358 -581 804 -662 1329 -23
151 -23 479 0 630 42 267 111 492 223 717 337 680 970 1144 1733 1268 193 32
468 33 670 4z"/>
<path d="M1805 3200 l-640 -640 640 -640 640 -640 82 82 83 83 -497 497 -498
498 1113 0 1112 0 0 120 0 120 -1112 0 -1113 0 498 498 497 497 -83 83 -82 82
-640 -640z m-285 -642 c0 -16 -3 -19 -11 -11 -6 6 -8 16 -5 22 11 17 16 13 16
-11z"/>
</g>
</svg>
